<?xml version="1.0" standalone="no"?>
<!DOCTYPE svg PUBLIC "-//W3C//DTD SVG 20010904//EN"
 "http://www.w3.org/TR/2001/REC-SVG-20010904/DTD/svg10.dtd">
<svg version="1.0" xmlns="http://www.w3.org/2000/svg"
 width="906.000000pt" height="802.000000pt" viewBox="0 0 906.000000 802.000000"
 preserveAspectRatio="xMidYMid meet">

<g transform="translate(0.000000,802.000000) scale(0.100000,-0.100000)"
fill="#000000" stroke="none">
<path d="M4375 7690 c-27 -5 -93 -13 -145 -20 -52 -6 -113 -15 -135 -20 -22
-5 -74 -14 -115 -20 -72 -12 -105 -19 -255 -60 -38 -11 -81 -22 -95 -26 -50
-12 -125 -36 -145 -45 -11 -5 -63 -24 -115 -43 -151 -55 -402 -171 -525 -243
-16 -10 -57 -33 -90 -52 -274 -157 -578 -404 -841 -682 -56 -60 -251 -304
-295 -370 -238 -356 -365 -617 -475 -974 -52 -168 -80 -287 -102 -435 -11 -74
-26 -175 -34 -225 -17 -116 -18 -602 -1 -700 7 -38 19 -124 28 -190 18 -132
35 -216 72 -345 13 -47 28 -103 34 -125 35 -126 147 -412 206 -520 9 -16 33
-64 55 -105 120 -230 296 -479 499 -705 171 -190 308 -315 519 -476 99 -75
338 -234 378 -251 15 -7 34 -17 42 -24 16 -13 314 -164 324 -164 3 0 53 -20
110 -44 56 -24 125 -51 152 -59 27 -9 76 -25 109 -37 118 -43 402 -112 555
-135 281 -41 341 -47 555 -52 266 -6 473 9 777 56 221 35 611 149 823 242 166
73 413 199 515 263 416 261 810 625 1061 979 60 85 164 243 185 282 12 22 47
87 78 145 85 155 128 254 216 495 10 28 21 59 25 70 41 109 91 334 120 535 45
312 55 530 35 720 -5 52 -17 162 -26 243 -8 82 -26 194 -39 250 -35 158 -77
320 -86 342 -5 11 -27 70 -48 130 -40 113 -143 342 -202 452 -84 155 -122 219
-149 254 -17 20 -30 40 -30 44 0 7 -108 158 -164 229 -133 167 -402 444 -536
551 -379 302 -686 478 -1115 639 -77 29 -192 67 -255 85 -63 17 -136 38 -162
46 -25 7 -88 21 -140 30 -51 8 -115 20 -143 25 -27 5 -86 14 -130 20 -44 5
-115 14 -158 20 -90 12 -648 11 -722 0z m660 -101 c379 -36 670 -98 968 -204
446 -158 832 -383 1187 -691 93 -81 299 -285 357 -354 259 -308 393 -523 569
-905 42 -92 122 -328 153 -450 93 -365 116 -563 108 -934 -7 -333 -29 -490
-118 -836 -19 -77 -115 -344 -143 -402 -14 -29 -26 -56 -26 -59 0 -12 -131
-265 -170 -328 -22 -37 -40 -68 -40 -70 0 -6 -100 -152 -151 -222 -185 -250
-421 -497 -628 -659 -35 -28 -78 -62 -95 -76 -155 -128 -472 -317 -706 -422
-190 -85 -453 -177 -605 -212 -33 -8 -98 -23 -145 -34 -178 -43 -608 -91 -814
-91 -200 0 -625 47 -801 89 -44 11 -118 28 -165 39 -179 42 -495 160 -710 266
-259 128 -370 199 -710 458 -88 67 -408 393 -504 513 -119 150 -327 463 -353
533 -4 9 -19 37 -33 62 -14 25 -36 70 -49 100 -13 30 -34 78 -47 105 -41 88
-116 297 -140 390 -12 50 -29 115 -37 145 -22 84 -51 237 -61 320 -13 105 -36
400 -36 467 0 67 23 354 35 448 17 127 51 303 69 357 8 24 17 60 21 81 6 38
58 203 75 242 5 11 20 49 33 85 103 278 306 628 516 890 260 324 656 669 966
840 33 18 67 39 75 45 8 7 74 42 145 78 217 109 488 215 685 267 63 16 129 34
145 40 30 9 178 36 354 65 52 8 120 15 150 16 31 0 79 4 106 9 77 11 445 11
570 -1z"/>
<path d="M3960 6700 c-47 -11 -119 -29 -160 -40 -41 -12 -88 -25 -105 -30 -89
-25 -125 -42 -125 -61 0 -11 22 -68 49 -127 26 -59 61 -136 77 -172 37 -86 53
-110 72 -110 16 0 46 10 232 80 65 24 250 83 345 111 177 51 414 68 511 37 83
-26 126 -53 182 -112 64 -67 125 -191 147 -294 22 -106 20 -325 -4 -433 -69
-311 -290 -592 -572 -729 -98 -47 -116 -49 -130 -13 -5 14 -36 74 -67 131 -73
135 -164 232 -235 252 -93 25 -180 -28 -238 -146 -27 -54 -33 -79 -36 -157 -9
-173 34 -294 145 -405 103 -104 208 -141 400 -142 l73 0 40 -87 c23 -49 51
-110 64 -138 76 -164 98 -213 119 -264 14 -31 56 -124 96 -206 57 -120 69
-154 61 -170 -5 -11 -42 -57 -83 -101 -40 -45 -116 -132 -168 -194 -52 -62
-129 -151 -170 -198 -42 -48 -120 -139 -174 -202 -98 -116 -151 -178 -466
-545 -94 -110 -215 -251 -268 -314 -53 -62 -115 -134 -138 -160 -51 -58 -64
-81 -64 -121 0 -58 35 -101 117 -143 37 -20 77 -22 120 -6 29 10 70 53 293
315 41 48 109 126 150 174 41 47 98 113 125 145 28 32 82 95 120 139 39 45 79
93 90 107 11 15 86 102 166 195 80 93 188 219 240 279 51 61 96 112 99 115 3
3 41 47 84 98 44 51 84 91 89 89 6 -2 84 -149 173 -328 104 -207 169 -325 180
-327 20 -5 64 43 64 69 0 10 -47 111 -104 226 -111 222 -226 460 -226 469 0 5
123 153 225 269 33 39 74 86 90 106 17 21 98 114 180 209 83 95 161 187 175
204 13 17 56 67 95 111 64 72 86 110 214 363 78 156 140 287 136 290 -8 9 -24
-2 -239 -158 -102 -74 -211 -152 -241 -174 -31 -21 -77 -63 -103 -93 -26 -31
-78 -92 -117 -137 -38 -45 -95 -110 -125 -146 -30 -36 -57 -67 -60 -70 -8 -7
-175 -202 -249 -289 -35 -42 -79 -93 -99 -115 l-35 -39 -15 29 c-20 37 -196
429 -229 509 -13 33 -42 97 -64 143 -55 117 -54 120 39 175 279 165 490 447
575 767 42 159 52 237 51 400 0 239 -37 410 -125 584 -119 235 -292 388 -534
471 -134 46 -144 47 -400 51 -218 3 -261 1 -335 -16z"/>
</g>
</svg>
